<svg version="1.0" xmlns="http://www.w3.org/2000/svg"  width="1800.000000pt" height="1800.000000pt" viewBox="0 0 1800.000000 1800.000000"  preserveAspectRatio="xMidYMid meet"> <g transform="translate(0.000000,1800.000000) scale(0.100000,-0.100000)" fill="#2dd4bf" stroke="none"> <path d="M12712 11266 c-5 -6 -14 -31 -21 -56 -7 -25 -20 -70 -28 -100 -9 -30 -19 -62 -23 -70 -4 -9 -11 -31 -14 -50 -4 -19 -13 -51 -20 -70 -7 -19 -21 -62 -31 -95 -9 -33 -23 -75 -31 -93 -8 -18 -14 -41 -14 -52 0 -11 -6 -34 -14 -52 -8 -18 -22 -60 -31 -93 -9 -33 -23 -75 -31 -93 -8 -18 -14 -40 -14 -48 0 -16 -20 -82 -46 -154 -7 -19 -26 -82 -44 -140 -17 -58 -37 -123 -44 -145 -7 -22 -20 -65 -29 -95 -9 -30 -30 -98 -47 -150 -17 -52 -38 -120 -46 -150 -9 -30 -22 -71 -29 -90 -7 -19 -20 -62 -30 -95 -9 -33 -22 -71 -27 -85 -6 -14 -14 -41 -18 -60 -5 -19 -13 -48 -19 -65 -6 -16 -32 -97 -57 -180 -25 -82 -52 -168 -59 -190 -7 -22 -27 -87 -44 -145 -18 -58 -39 -120 -47 -138 -7 -18 -14 -43 -14 -55 0 -12 -7 -35 -15 -51 -8 -15 -15 -33 -15 -40 0 -15 -58 -203 -76 -244 -8 -18 -14 -44 -14 -57 0 -13 -4 -26 -9 -30 -5 -3 -12 -20 -16 -38 -4 -17 -12 -50 -20 -72 -11 -35 -44 -141 -92 -300 -9 -27 -21 -66 -28 -85 -7 -19 -20 -62 -30 -95 -9 -33 -23 -78 -30 -100 -7 -22 -27 -87 -45 -145 -18 -58 -38 -121 -45 -140 -7 -19 -20 -62 -30 -95 -10 -33 -23 -78 -30 -100 -7 -22 -19 -62 -28 -90 -36 -120 -81 -263 -92 -295 -7 -19 -21 -62 -31 -95 -9 -33 -28 -91 -41 -130 -14 -38 -28 -83 -33 -100 -5 -16 -16 -50 -25 -74 -9 -24 -15 -53 -13 -65 l3 -20 225 2 225 2 18 21 c9 12 17 31 17 42 0 12 6 39 14 62 7 22 21 67 31 100 10 33 23 78 30 100 7 22 21 67 30 100 10 33 23 76 30 95 28 81 45 139 45 154 0 9 4 24 10 34 13 23 50 138 50 156 0 7 7 27 15 42 8 16 15 36 15 44 0 9 13 54 30 100 16 47 30 95 30 107 0 12 4 24 9 28 5 3 13 20 16 38 4 17 20 71 36 120 16 48 29 94 29 102 0 8 6 29 14 47 7 18 21 60 31 93 10 33 24 74 31 92 8 17 14 37 14 44 0 7 6 31 14 54 8 22 22 67 31 100 10 33 24 75 31 93 8 18 14 41 14 52 0 11 6 34 14 52 8 18 29 80 46 138 18 58 39 120 46 138 8 18 14 43 14 56 0 13 7 37 15 52 8 16 15 37 15 46 0 10 6 32 14 50 8 18 22 60 32 93 9 33 28 92 42 130 13 39 27 88 31 110 5 22 13 51 18 65 6 14 19 52 28 85 10 33 21 69 25 80 26 67 80 245 80 262 0 10 4 23 10 29 5 5 14 30 19 54 5 25 15 61 22 80 6 19 15 44 19 55 7 21 42 133 68 220 8 28 21 65 28 83 8 18 14 42 14 53 0 12 6 35 14 52 7 18 21 59 31 92 10 33 23 76 30 95 7 19 21 62 30 95 10 33 24 75 31 93 8 18 14 40 14 49 0 14 43 155 75 243 27 76 45 139 45 156 0 11 7 28 15 38 8 11 15 30 15 43 0 12 6 37 14 55 8 18 24 62 35 98 30 96 50 152 62 177 6 11 8 26 5 32 l-7 10 -229 -1 -230 -1 -8 -11z"/> <path d="M4989 10103 c-5 -42 5 -482 12 -494 4 -9 19 -19 31 -22 34 -8 104 -35 167 -64 31 -14 72 -32 91 -40 19 -8 50 -21 68 -29 55 -24 95 -41 152 -64 84 -34 162 -69 193 -85 16 -8 33 -15 38 -15 5 0 37 -13 72 -29 34 -16 98 -44 142 -62 44 -18 89 -39 100 -46 11 -7 25 -13 33 -13 7 0 40 -13 74 -30 33 -16 64 -30 68 -30 5 0 52 -20 104 -45 53 -25 100 -45 105 -45 5 0 22 -6 38 -14 15 -8 39 -19 53 -24 14 -6 66 -27 115 -47 50 -21 104 -43 122 -51 17 -8 36 -14 42 -14 6 0 19 -4 29 -9 9 -5 29 -14 45 -20 l27 -11 0 -33 0 -34 -23 -21 c-13 -12 -31 -22 -41 -22 -9 0 -38 -9 -64 -21 -62 -27 -68 -29 -202 -84 -63 -25 -128 -53 -145 -60 -16 -8 -52 -23 -80 -35 -51 -21 -72 -30 -135 -58 -19 -9 -51 -22 -70 -30 -19 -8 -48 -21 -65 -28 -16 -7 -46 -19 -65 -28 -19 -8 -60 -26 -90 -39 -30 -13 -80 -34 -110 -47 -30 -12 -83 -35 -117 -51 -35 -16 -65 -29 -69 -29 -3 0 -20 -6 -37 -14 -86 -39 -150 -67 -232 -100 -49 -21 -105 -44 -122 -52 -92 -40 -110 -48 -135 -61 -14 -7 -33 -13 -41 -13 -9 0 -29 -8 -45 -17 l-30 -17 -4 -241 -3 -240 10 -12 11 -13 94 46 c52 26 102 51 110 55 8 5 22 12 30 15 19 8 140 63 310 142 73 34 270 123 445 202 22 10 69 32 105 49 36 17 68 31 72 31 6 0 58 23 256 116 40 19 75 34 77 34 3 0 49 21 102 46 54 25 139 64 188 86 50 21 108 47 130 57 82 38 225 102 280 126 17 7 74 34 127 59 53 25 103 46 110 46 8 0 19 5 25 11 6 6 26 14 45 18 l33 7 10 24 11 25 -4 181 -4 181 -41 17 c-56 23 -90 38 -169 75 -37 17 -70 31 -72 31 -5 0 -96 41 -206 92 -36 17 -78 36 -95 43 -49 22 -168 77 -197 91 -14 8 -33 14 -41 14 -8 0 -20 7 -27 15 -7 8 -19 15 -26 15 -7 0 -55 20 -106 44 -51 24 -156 72 -233 106 -77 35 -169 76 -205 92 -36 17 -83 38 -105 48 -22 10 -71 33 -110 50 -38 18 -92 42 -120 55 -246 109 -427 192 -562 256 -44 21 -83 39 -86 39 -3 0 -33 16 -66 35 -56 33 -100 45 -102 28z"/> <path d="M10067 7295 c-92 -25 -168 -90 -212 -180 l-29 -59 0 -106 0 -105 34 -63 c52 -98 130 -151 255 -173 l68 -12 71 12 c146 25 219 79 280 206 l19 40 1 105 1 105 -30 60 -30 59 -57 46 c-31 25 -79 53 -106 63 l-50 17 -83 -1 c-46 0 -106 -7 -132 -14z"/> </g> </svg>
